<mxfile host="app.diagrams.net" modified="2023-11-10T13:36:37.498Z" agent="Mozilla/5.0 (Windows NT 10.0; Win64; x64) AppleWebKit/537.36 (KHTML, like Gecko) Chrome/119.0.0.0 Safari/537.36" etag="37e-lp7HrtbzPTLmaGbm" version="22.1.0" type="device">
  <diagram name="Page-1" id="35BrJJmk3PfKp0oa7-4a">
    <mxGraphModel dx="2082" dy="1096" grid="1" gridSize="10" guides="1" tooltips="1" connect="1" arrows="1" fold="1" page="1" pageScale="1" pageWidth="850" pageHeight="1100" math="0" shadow="0">
      <root>
        <mxCell id="0" />
        <mxCell id="1" parent="0" />
        <mxCell id="xgIHe0mshqJdsH0BF-9Y-1" value="" style="verticalLabelPosition=bottom;html=1;verticalAlign=top;align=center;strokeColor=none;fillColor=#00BEF2;shape=mxgraph.azure.user;" vertex="1" parent="1">
          <mxGeometry x="660" y="80" width="80" height="80" as="geometry" />
        </mxCell>
        <mxCell id="xgIHe0mshqJdsH0BF-9Y-4" value="" style="verticalLabelPosition=bottom;html=1;verticalAlign=top;align=center;strokeColor=none;fillColor=#00BEF2;shape=mxgraph.azure.user;" vertex="1" parent="1">
          <mxGeometry x="370" y="80" width="80" height="80" as="geometry" />
        </mxCell>
        <mxCell id="xgIHe0mshqJdsH0BF-9Y-5" value="" style="verticalLabelPosition=bottom;html=1;verticalAlign=top;align=center;strokeColor=none;fillColor=#00BEF2;shape=mxgraph.azure.user;" vertex="1" parent="1">
          <mxGeometry x="70" y="80" width="80" height="80" as="geometry" />
        </mxCell>
        <mxCell id="xgIHe0mshqJdsH0BF-9Y-7" value="" style="rounded=1;whiteSpace=wrap;html=1;dashed=1;fillColor=none;strokeWidth=3;" vertex="1" parent="1">
          <mxGeometry x="-20" y="880" width="845" height="650" as="geometry" />
        </mxCell>
        <mxCell id="xgIHe0mshqJdsH0BF-9Y-8" value="" style="verticalLabelPosition=bottom;html=1;verticalAlign=top;align=center;strokeColor=none;fillColor=#00BEF2;shape=mxgraph.azure.computer;pointerEvents=1;" vertex="1" parent="1">
          <mxGeometry x="347.5" y="350" width="125" height="110" as="geometry" />
        </mxCell>
        <mxCell id="xgIHe0mshqJdsH0BF-9Y-9" value="" style="endArrow=classic;html=1;rounded=0;exitX=0.5;exitY=1;exitDx=0;exitDy=0;exitPerimeter=0;entryX=0.5;entryY=0;entryDx=0;entryDy=0;entryPerimeter=0;" edge="1" parent="1" source="xgIHe0mshqJdsH0BF-9Y-5" target="xgIHe0mshqJdsH0BF-9Y-14">
          <mxGeometry width="50" height="50" relative="1" as="geometry">
            <mxPoint x="420" y="580" as="sourcePoint" />
            <mxPoint x="470" y="530" as="targetPoint" />
          </mxGeometry>
        </mxCell>
        <mxCell id="xgIHe0mshqJdsH0BF-9Y-10" value="" style="endArrow=classic;html=1;rounded=0;exitX=0.5;exitY=1;exitDx=0;exitDy=0;exitPerimeter=0;entryX=0.524;entryY=0.073;entryDx=0;entryDy=0;entryPerimeter=0;" edge="1" parent="1" source="xgIHe0mshqJdsH0BF-9Y-4" target="xgIHe0mshqJdsH0BF-9Y-8">
          <mxGeometry width="50" height="50" relative="1" as="geometry">
            <mxPoint x="420" y="580" as="sourcePoint" />
            <mxPoint x="470" y="530" as="targetPoint" />
          </mxGeometry>
        </mxCell>
        <mxCell id="xgIHe0mshqJdsH0BF-9Y-11" value="" style="endArrow=classic;html=1;rounded=0;entryX=0.5;entryY=0;entryDx=0;entryDy=0;entryPerimeter=0;exitX=0.5;exitY=1;exitDx=0;exitDy=0;exitPerimeter=0;" edge="1" parent="1" source="xgIHe0mshqJdsH0BF-9Y-1" target="xgIHe0mshqJdsH0BF-9Y-15">
          <mxGeometry width="50" height="50" relative="1" as="geometry">
            <mxPoint x="420" y="580" as="sourcePoint" />
            <mxPoint x="470" y="530" as="targetPoint" />
          </mxGeometry>
        </mxCell>
        <mxCell id="xgIHe0mshqJdsH0BF-9Y-12" value="&lt;font style=&quot;font-size: 21px;&quot;&gt;&lt;font style=&quot;font-size: 21px;&quot;&gt;Frontend &lt;/font&gt;application&lt;/font&gt;" style="rounded=1;whiteSpace=wrap;html=1;strokeColor=#000000;" vertex="1" parent="1">
          <mxGeometry x="270" y="640" width="280" height="70" as="geometry" />
        </mxCell>
        <mxCell id="xgIHe0mshqJdsH0BF-9Y-13" value="" style="endArrow=classic;html=1;rounded=0;exitX=0.5;exitY=1;exitDx=0;exitDy=0;" edge="1" parent="1" source="xgIHe0mshqJdsH0BF-9Y-12" target="xgIHe0mshqJdsH0BF-9Y-22">
          <mxGeometry width="50" height="50" relative="1" as="geometry">
            <mxPoint x="420" y="1080" as="sourcePoint" />
            <mxPoint x="470" y="1030" as="targetPoint" />
          </mxGeometry>
        </mxCell>
        <mxCell id="xgIHe0mshqJdsH0BF-9Y-14" value="" style="verticalLabelPosition=bottom;html=1;verticalAlign=top;align=center;strokeColor=none;fillColor=#00BEF2;shape=mxgraph.azure.computer;pointerEvents=1;" vertex="1" parent="1">
          <mxGeometry x="47.5" y="350" width="125" height="110" as="geometry" />
        </mxCell>
        <mxCell id="xgIHe0mshqJdsH0BF-9Y-15" value="" style="verticalLabelPosition=bottom;html=1;verticalAlign=top;align=center;strokeColor=none;fillColor=#00BEF2;shape=mxgraph.azure.computer;pointerEvents=1;" vertex="1" parent="1">
          <mxGeometry x="637.5" y="340" width="125" height="110" as="geometry" />
        </mxCell>
        <mxCell id="xgIHe0mshqJdsH0BF-9Y-17" value="" style="endArrow=classic;html=1;rounded=0;exitX=0.444;exitY=1.045;exitDx=0;exitDy=0;exitPerimeter=0;" edge="1" parent="1" source="xgIHe0mshqJdsH0BF-9Y-15" target="xgIHe0mshqJdsH0BF-9Y-12">
          <mxGeometry width="50" height="50" relative="1" as="geometry">
            <mxPoint x="420" y="580" as="sourcePoint" />
            <mxPoint x="470" y="530" as="targetPoint" />
          </mxGeometry>
        </mxCell>
        <mxCell id="xgIHe0mshqJdsH0BF-9Y-18" value="" style="endArrow=classic;html=1;rounded=0;entryX=0.204;entryY=0.043;entryDx=0;entryDy=0;entryPerimeter=0;exitX=0.5;exitY=1;exitDx=0;exitDy=0;exitPerimeter=0;" edge="1" parent="1" source="xgIHe0mshqJdsH0BF-9Y-14" target="xgIHe0mshqJdsH0BF-9Y-12">
          <mxGeometry width="50" height="50" relative="1" as="geometry">
            <mxPoint x="420" y="580" as="sourcePoint" />
            <mxPoint x="470" y="530" as="targetPoint" />
          </mxGeometry>
        </mxCell>
        <mxCell id="xgIHe0mshqJdsH0BF-9Y-19" value="" style="endArrow=classic;html=1;rounded=0;entryX=0.5;entryY=0;entryDx=0;entryDy=0;exitX=0.5;exitY=1;exitDx=0;exitDy=0;exitPerimeter=0;" edge="1" parent="1" source="xgIHe0mshqJdsH0BF-9Y-8" target="xgIHe0mshqJdsH0BF-9Y-12">
          <mxGeometry width="50" height="50" relative="1" as="geometry">
            <mxPoint x="420" y="580" as="sourcePoint" />
            <mxPoint x="470" y="530" as="targetPoint" />
          </mxGeometry>
        </mxCell>
        <mxCell id="xgIHe0mshqJdsH0BF-9Y-20" value="&lt;font style=&quot;font-size: 19px;&quot;&gt;&lt;b&gt;Backend architecture&lt;/b&gt;&lt;/font&gt;" style="text;html=1;align=center;verticalAlign=middle;resizable=0;points=[];autosize=1;strokeColor=none;fillColor=none;" vertex="1" parent="1">
          <mxGeometry x="90" y="840" width="220" height="40" as="geometry" />
        </mxCell>
        <mxCell id="xgIHe0mshqJdsH0BF-9Y-22" value="&lt;span style=&quot;font-size: 21px;&quot;&gt;LoadBalancer&lt;br&gt;&lt;/span&gt;" style="rounded=1;whiteSpace=wrap;html=1;strokeColor=#000000;" vertex="1" parent="1">
          <mxGeometry x="270" y="950" width="280" height="70" as="geometry" />
        </mxCell>
        <mxCell id="xgIHe0mshqJdsH0BF-9Y-23" value="&lt;font style=&quot;font-size: 14px;&quot;&gt;&lt;b&gt;Http request&lt;/b&gt;&lt;/font&gt;" style="text;html=1;align=center;verticalAlign=middle;resizable=0;points=[];autosize=1;strokeColor=none;fillColor=none;" vertex="1" parent="1">
          <mxGeometry x="405" y="800" width="110" height="30" as="geometry" />
        </mxCell>
        <mxCell id="xgIHe0mshqJdsH0BF-9Y-24" value="MongoDb" style="shape=cylinder3;whiteSpace=wrap;html=1;boundedLbl=1;backgroundOutline=1;size=15;" vertex="1" parent="1">
          <mxGeometry x="150" y="1290" width="120" height="160" as="geometry" />
        </mxCell>
        <mxCell id="xgIHe0mshqJdsH0BF-9Y-28" value="&lt;span style=&quot;font-size: 21px;&quot;&gt;Backend isntance n&lt;/span&gt;" style="rounded=1;whiteSpace=wrap;html=1;strokeColor=#000000;" vertex="1" parent="1">
          <mxGeometry x="555" y="1100" width="207.5" height="50" as="geometry" />
        </mxCell>
        <mxCell id="xgIHe0mshqJdsH0BF-9Y-29" value="&lt;span style=&quot;font-size: 21px;&quot;&gt;Backend isntance 2&lt;/span&gt;" style="rounded=1;whiteSpace=wrap;html=1;strokeColor=#000000;" vertex="1" parent="1">
          <mxGeometry x="306.25" y="1100" width="207.5" height="50" as="geometry" />
        </mxCell>
        <mxCell id="xgIHe0mshqJdsH0BF-9Y-30" value="&lt;span style=&quot;font-size: 21px;&quot;&gt;Backend isntance 1&lt;/span&gt;" style="rounded=1;whiteSpace=wrap;html=1;strokeColor=#000000;" vertex="1" parent="1">
          <mxGeometry x="62.5" y="1100" width="207.5" height="50" as="geometry" />
        </mxCell>
        <mxCell id="xgIHe0mshqJdsH0BF-9Y-31" value="" style="endArrow=classic;html=1;rounded=0;entryX=0.5;entryY=0;entryDx=0;entryDy=0;exitX=1;exitY=1;exitDx=0;exitDy=0;" edge="1" parent="1" source="xgIHe0mshqJdsH0BF-9Y-22" target="xgIHe0mshqJdsH0BF-9Y-28">
          <mxGeometry width="50" height="50" relative="1" as="geometry">
            <mxPoint x="420" y="1080" as="sourcePoint" />
            <mxPoint x="470" y="1040" as="targetPoint" />
          </mxGeometry>
        </mxCell>
        <mxCell id="xgIHe0mshqJdsH0BF-9Y-33" value="" style="endArrow=classic;html=1;rounded=0;exitX=0;exitY=1;exitDx=0;exitDy=0;entryX=0.5;entryY=0;entryDx=0;entryDy=0;" edge="1" parent="1" source="xgIHe0mshqJdsH0BF-9Y-22" target="xgIHe0mshqJdsH0BF-9Y-30">
          <mxGeometry width="50" height="50" relative="1" as="geometry">
            <mxPoint x="420" y="1080" as="sourcePoint" />
            <mxPoint x="470" y="1030" as="targetPoint" />
          </mxGeometry>
        </mxCell>
        <mxCell id="xgIHe0mshqJdsH0BF-9Y-34" value="" style="endArrow=classic;html=1;rounded=0;exitX=0.5;exitY=1;exitDx=0;exitDy=0;entryX=0.5;entryY=0;entryDx=0;entryDy=0;" edge="1" parent="1" source="xgIHe0mshqJdsH0BF-9Y-22" target="xgIHe0mshqJdsH0BF-9Y-29">
          <mxGeometry width="50" height="50" relative="1" as="geometry">
            <mxPoint x="420" y="1080" as="sourcePoint" />
            <mxPoint x="470" y="1030" as="targetPoint" />
          </mxGeometry>
        </mxCell>
        <mxCell id="xgIHe0mshqJdsH0BF-9Y-35" value="Redis" style="shape=cylinder3;whiteSpace=wrap;html=1;boundedLbl=1;backgroundOutline=1;size=15;" vertex="1" parent="1">
          <mxGeometry x="570" y="1290" width="100" height="150" as="geometry" />
        </mxCell>
      </root>
    </mxGraphModel>
  </diagram>
</mxfile>
